Genre:Comedy | Drama | Family
Language:English
 
http://www.imdb.com/title/tt0803061/

Source:720p.BluRay.x264-aAF Thanks!

Format : MPEG-4
Format profile : Base Media
Codec ID : isom
File size : 2.18 GiB
Duration : 1h 32mn
Overall bit rate : 3 385 Kbps

Video
ID : 1
Format : AVC
Format/Info : Advanced Video Codec
Format profile : High@L5.1
Format settings, CABAC : Yes
Format settings, ReFrames : 3 frames
Format settings, GOP : M=1, N=24
Codec ID : avc1
Codec ID/Info : Advanced Video Coding
Duration : 1h 32mn
Bit rate mode : Variable
Bit rate : 3 000 Kbps
Maximum bit rate : 26.4 Mbps
Width : 1 280 pixels
Height : 544 pixels
Display aspect ratio : 2.35:1
Frame rate mode : Constant
Frame rate : 23.976 fps
Color space : YUV
Chroma subsampling : 4:2:0
Bit depth : 8 bits
Scan type : Progressive
Bits/(Pixel*Frame) : 0.180
Stream size : 1.89 GiB (87%)
Writing library : x264


Audio
ID : 2
Format : AAC
Format/Info : Advanced Audio Codec
Format version : Version 4
Format profile : LC
Format settings, SBR : No
Codec ID : 40
Duration : 1h 32mn
Bit rate mode : Variable
Bit rate : 444 Kbps
Maximum bit rate : 553 Kbps
Channel(s) : 6 channels
Channel positions : Front: L C R, Side: L R, LFE
Sampling rate : 48.0 KHz
Stream size : 293 MiB (13%)


Plot:
Based on the legendary true story of the Red Dog who united a disparate local community while roaming the Australian outback in search of his long lost master